<svg width="18" height="18" viewBox="0 0 18 18" fill="none" xmlns="http://www.w3.org/2000/svg">
<path d="M14.7433 0H6.56368C4.76777 0 3.30697 1.4608 3.30697 3.25671V3.30697H3.25671C1.4608 3.30697 0 4.76777 0 6.56368V14.7433C0 16.5392 1.4608 18 3.25671 18H11.4363C13.2273 18 14.6843 16.5392 14.6843 14.7433V14.684H14.7433C16.5392 14.684 18 13.227 18 11.4363V3.25671C18 1.4608 16.5392 0 14.7433 0ZM14.0638 14.7433C14.0638 16.197 12.885 17.3794 11.4363 17.3794H3.25671C1.80304 17.3794 0.620561 16.1966 0.620561 14.7433V6.56368C0.620561 5.11001 1.80335 3.92753 3.25671 3.92753H3.30697V11.4363C3.30697 13.227 4.76777 14.684 6.56368 14.684H14.0638V14.7433ZM17.3794 11.4363C17.3794 12.885 16.1966 14.0635 14.7433 14.0635H6.56368C5.11001 14.0635 3.92753 12.885 3.92753 11.4363V3.25671C3.92753 1.80304 5.11032 0.620561 6.56368 0.620561H14.7433C16.197 0.620561 17.3794 1.80335 17.3794 3.25671V11.4363Z" fill="white"/>
<path d="M14.4097 4.82244L10.0288 9.20298L7.75043 6.92428C7.62911 6.80296 7.43301 6.80296 7.31169 6.92428C7.19037 7.0456 7.19037 7.24169 7.31169 7.36301L9.80945 9.86108C9.86778 9.91941 9.9466 9.95199 10.0288 9.95199C10.111 9.95199 10.1902 9.91941 10.2482 9.86108L14.8484 5.26117C14.9697 5.13985 14.9697 4.94375 14.8484 4.82244C14.7271 4.70112 14.531 4.70112 14.4097 4.82244Z" fill="white"/>
<path d="M13.2046 10.9854H8.10325C7.93197 10.9854 7.79297 11.1244 7.79297 11.2956C7.79297 11.4669 7.93197 11.6059 8.10325 11.6059H13.2046C13.3758 11.6059 13.5149 11.4669 13.5149 11.2956C13.5149 11.1244 13.3758 10.9854 13.2046 10.9854Z" fill="white"/>
</svg>
