<svg width="27" height="28" viewBox="0 0 27 28" fill="none" xmlns="http://www.w3.org/2000/svg">
<path d="M26.9997 14.0814C26.9997 12.9488 26.9078 12.1223 26.7089 11.2651H13.7754V16.3772H21.3671C21.2141 17.6477 20.3875 19.5609 18.5508 20.8465L18.525 21.0177L22.6144 24.1856L22.8977 24.2139C25.4996 21.8109 26.9997 18.2752 26.9997 14.0814Z" fill="#4285F4"/>
<path d="M13.7757 27.5506C17.495 27.5506 20.6173 26.3261 22.898 24.2139L18.5511 20.8465C17.3879 21.6578 15.8266 22.2241 13.7757 22.2241C10.1329 22.2241 7.04115 19.8211 5.93902 16.4998L5.77748 16.5135L1.52533 19.8042L1.46973 19.9588C3.73498 24.4587 8.38798 27.5506 13.7757 27.5506Z" fill="#34A853"/>
<path d="M5.93863 16.4998C5.64782 15.6426 5.47952 14.7242 5.47952 13.7753C5.47952 12.8263 5.64782 11.908 5.92333 11.0508L5.91563 10.8683L1.6102 7.52466L1.46933 7.59166C0.535712 9.459 0 11.556 0 13.7753C0 15.9947 0.535712 18.0915 1.46933 19.9588L5.93863 16.4998Z" fill="#FBBC05"/>
<path d="M13.7757 5.32642C16.3624 5.32642 18.1072 6.44374 19.1021 7.37746L22.9898 3.58158C20.6022 1.36223 17.495 0 13.7757 0C8.38798 0 3.73498 3.09177 1.46973 7.59167L5.92373 11.0508C7.04116 7.72947 10.1329 5.32642 13.7757 5.32642Z" fill="#EB4335"/>
</svg>
