<svg width="36" height="36" viewBox="0 0 36 36" fill="none" xmlns="http://www.w3.org/2000/svg">
<g id="Group 427320725">
<rect id="Rectangle 2902" x="0.5" y="0.5" width="35" height="35" rx="4.5" stroke="white" stroke-opacity="0.7"/>
<g id="Group 427320724">
<path id="vector" d="M27 9.32353V24.6765C27 25.0275 26.8606 25.3641 26.6123 25.6123C26.3641 25.8606 26.0275 26 25.6765 26H10.3235C9.97251 26 9.63586 25.8606 9.38765 25.6123C9.13944 25.3641 9 25.0275 9 24.6765V9.32353C9 8.97251 9.13944 8.63586 9.38765 8.38765C9.63586 8.13944 9.97251 8 10.3235 8H25.6765C26.0275 8 26.3641 8.13944 26.6123 8.38765C26.8606 8.63586 27 8.97251 27 9.32353ZM14.2941 14.8824H11.6471V23.3529H14.2941V14.8824ZM14.5324 11.9706C14.5337 11.7704 14.4957 11.5718 14.4204 11.3863C14.345 11.2008 14.2339 11.0319 14.0933 10.8893C13.9527 10.7468 13.7854 10.6333 13.6009 10.5554C13.4165 10.4775 13.2185 10.4367 13.0182 10.4353H12.9706C12.5634 10.4353 12.1729 10.597 11.885 10.885C11.597 11.1729 11.4353 11.5634 11.4353 11.9706C11.4353 12.3778 11.597 12.7683 11.885 13.0562C12.1729 13.3441 12.5634 13.5059 12.9706 13.5059C13.1708 13.5108 13.3701 13.4762 13.557 13.4041C13.7438 13.332 13.9147 13.2238 14.0597 13.0856C14.2047 12.9475 14.3211 12.7821 14.4022 12.599C14.4833 12.4158 14.5275 12.2185 14.5324 12.0182V11.9706ZM24.3529 18.2071C24.3529 15.6606 22.7329 14.6706 21.1235 14.6706C20.5966 14.6442 20.0719 14.7564 19.6019 14.9961C19.1318 15.2358 18.7328 15.5945 18.4447 16.0365H18.3706V14.8824H15.8824V23.3529H18.5294V18.8476C18.4911 18.3862 18.6365 17.9283 18.9339 17.5735C19.2313 17.2186 19.6566 16.9954 20.1176 16.9524H20.2182C21.06 16.9524 21.6847 17.4818 21.6847 18.8159V23.3529H24.3318L24.3529 18.2071Z" fill="white" fill-opacity="0.5"/>
</g>
</g>
</svg>
