<svg width="40" height="40" viewBox="0 0 40 40" fill="none" xmlns="http://www.w3.org/2000/svg">
<rect x="0.5" y="0.5" width="39" height="39" rx="4.5" stroke="white" stroke-opacity="0.7"/>
<path d="M32 9.76471V30.2353C32 30.7033 31.8141 31.1522 31.4831 31.4831C31.1522 31.8141 30.7033 32 30.2353 32H9.76471C9.29668 32 8.84782 31.8141 8.51687 31.4831C8.18592 31.1522 8 30.7033 8 30.2353V9.76471C8 9.29668 8.18592 8.84782 8.51687 8.51687C8.84782 8.18592 9.29668 8 9.76471 8H30.2353C30.7033 8 31.1522 8.18592 31.4831 8.51687C31.8141 8.84782 32 9.29668 32 9.76471ZM15.0588 17.1765H11.5294V28.4706H15.0588V17.1765ZM15.3765 13.2941C15.3783 13.0271 15.3276 12.7624 15.2271 12.5151C15.1267 12.2677 14.9785 12.0426 14.791 11.8525C14.6036 11.6624 14.3805 11.5111 14.1346 11.4072C13.8886 11.3033 13.6246 11.2489 13.3576 11.2471H13.2941C12.7512 11.2471 12.2305 11.4627 11.8466 11.8466C11.4627 12.2305 11.2471 12.7512 11.2471 13.2941C11.2471 13.837 11.4627 14.3577 11.8466 14.7416C12.2305 15.1255 12.7512 15.3412 13.2941 15.3412C13.5611 15.3477 13.8268 15.3016 14.0759 15.2055C14.3251 15.1094 14.5529 14.9651 14.7463 14.7809C14.9396 14.5967 15.0948 14.3762 15.203 14.132C15.3111 13.8878 15.3701 13.6246 15.3765 13.3576V13.2941ZM28.4706 21.6094C28.4706 18.2141 26.3106 16.8941 24.1647 16.8941C23.4621 16.8589 22.7626 17.0086 22.1358 17.3281C21.5091 17.6477 20.9771 18.126 20.5929 18.7153H20.4941V17.1765H17.1765V28.4706H20.7059V22.4635C20.6549 21.8483 20.8487 21.2378 21.2452 20.7646C21.6417 20.2915 22.2089 19.9939 22.8235 19.9365H22.9576C24.08 19.9365 24.9129 20.6424 24.9129 22.4212V28.4706H28.4424L28.4706 21.6094Z" fill="white" fill-opacity="0.5"/>
</svg>
