<svg width="36" height="36" viewBox="0 0 36 36" fill="none" xmlns="http://www.w3.org/2000/svg">
<g id="Group 427320725">
<rect id="Rectangle 2902" x="0.5" y="0.5" width="35" height="35" rx="4.5" stroke="white" stroke-opacity="0.7"/>
<g id="Group 427320724">
<path id="vector" d="M27 10.3235V25.6765C27 26.0275 26.8606 26.3641 26.6123 26.6123C26.3641 26.8606 26.0275 27 25.6765 27H10.3235C9.97251 27 9.63586 26.8606 9.38765 26.6123C9.13944 26.3641 9 26.0275 9 25.6765V10.3235C9 9.97251 9.13944 9.63586 9.38765 9.38765C9.63586 9.13944 9.97251 9 10.3235 9H25.6765C26.0275 9 26.3641 9.13944 26.6123 9.38765C26.8606 9.63586 27 9.97251 27 10.3235ZM14.2941 15.8824H11.6471V24.3529H14.2941V15.8824ZM14.5324 12.9706C14.5337 12.7704 14.4957 12.5718 14.4204 12.3863C14.345 12.2008 14.2339 12.0319 14.0933 11.8893C13.9527 11.7468 13.7854 11.6333 13.6009 11.5554C13.4165 11.4775 13.2185 11.4367 13.0182 11.4353H12.9706C12.5634 11.4353 12.1729 11.597 11.885 11.885C11.597 12.1729 11.4353 12.5634 11.4353 12.9706C11.4353 13.3778 11.597 13.7683 11.885 14.0562C12.1729 14.3441 12.5634 14.5059 12.9706 14.5059C13.1708 14.5108 13.3701 14.4762 13.557 14.4041C13.7438 14.332 13.9147 14.2238 14.0597 14.0856C14.2047 13.9475 14.3211 13.7821 14.4022 13.599C14.4833 13.4158 14.5275 13.2185 14.5324 13.0182V12.9706ZM24.3529 19.2071C24.3529 16.6606 22.7329 15.6706 21.1235 15.6706C20.5966 15.6442 20.0719 15.7564 19.6019 15.9961C19.1318 16.2358 18.7328 16.5945 18.4447 17.0365H18.3706V15.8824H15.8824V24.3529H18.5294V19.8476C18.4911 19.3862 18.6365 18.9283 18.9339 18.5735C19.2313 18.2186 19.6566 17.9954 20.1176 17.9524H20.2182C21.06 17.9524 21.6847 18.4818 21.6847 19.8159V24.3529H24.3318L24.3529 19.2071Z" fill="white" fill-opacity="0.5"/>
</g>
</g>
</svg>
