<svg width="36" height="36" viewBox="0 0 36 36" fill="none" xmlns="http://www.w3.org/2000/svg">
<g id="Group 427320728">
<path id="vector" fill-rule="evenodd" clip-rule="evenodd" d="M27.7711 19.5428C27.7711 24.6554 23.6266 28.7999 18.514 28.7999C13.4014 28.7999 9.25684 24.6554 9.25684 19.5428C9.25684 14.4302 13.4014 10.2856 18.514 10.2856C23.6266 10.2856 27.7711 14.4302 27.7711 19.5428ZM18.8457 17.1197C17.9453 17.4942 16.1458 18.2693 13.4471 19.4451C13.0089 19.6193 12.7794 19.7898 12.7585 19.9565C12.7231 20.2382 13.0759 20.3492 13.5564 20.5002C13.6217 20.5208 13.6894 20.5421 13.7588 20.5646C14.2315 20.7183 14.8673 20.898 15.1978 20.9052C15.4976 20.9116 15.8323 20.788 16.2017 20.5344C18.7231 18.8323 20.0247 17.972 20.1064 17.9535C20.1641 17.9404 20.244 17.9239 20.2981 17.9721C20.3522 18.0202 20.3469 18.1113 20.3412 18.1357C20.3062 18.2847 18.9214 19.5722 18.2047 20.2385C17.9813 20.4462 17.8228 20.5935 17.7904 20.6272C17.7179 20.7025 17.6439 20.7738 17.5728 20.8424C17.1337 21.2657 16.8044 21.5831 17.591 22.1015C17.969 22.3506 18.2715 22.5566 18.5733 22.7621C18.9029 22.9865 19.2316 23.2104 19.6569 23.4892C19.7653 23.5602 19.8688 23.634 19.9696 23.7058C20.3531 23.9793 20.6977 24.2249 21.1234 24.1858C21.3707 24.163 21.6263 23.9304 21.756 23.2367C22.0627 21.5972 22.6655 18.045 22.8048 16.5813C22.817 16.453 22.8017 16.2889 22.7893 16.2168C22.777 16.1448 22.7512 16.0421 22.6576 15.9661C22.5467 15.8761 22.3754 15.8572 22.2989 15.8585C21.9507 15.8647 21.4165 16.0504 18.8457 17.1197Z" fill="white" fill-opacity="0.5"/>
<rect id="Rectangle 2905" x="0.5" y="0.5" width="35" height="35" rx="4.5" stroke="white" stroke-opacity="0.7"/>
</g>
</svg>
