<svg width="36" height="36" viewBox="0 0 36 36" fill="none" xmlns="http://www.w3.org/2000/svg">
<g id="Group 427320728">
<path id="vector" fill-rule="evenodd" clip-rule="evenodd" d="M27 18C27 22.9706 22.9706 27 18 27C13.0294 27 9 22.9706 9 18C9 13.0294 13.0294 9 18 9C22.9706 9 27 13.0294 27 18ZM18.3225 15.6442C17.4471 16.0083 15.6976 16.7619 13.0739 17.905C12.6479 18.0744 12.4247 18.2402 12.4044 18.4022C12.37 18.6761 12.713 18.784 13.1801 18.9309C13.2436 18.9508 13.3094 18.9715 13.3769 18.9935C13.8365 19.1428 14.4546 19.3176 14.7759 19.3245C15.0674 19.3308 15.3928 19.2107 15.752 18.964C18.2034 17.3093 19.4688 16.4729 19.5482 16.4548C19.6043 16.4421 19.6819 16.4261 19.7346 16.4729C19.7872 16.5197 19.782 16.6083 19.7764 16.632C19.7425 16.7769 18.3961 18.0286 17.6993 18.6763C17.4821 18.8783 17.328 19.0215 17.2965 19.0542C17.226 19.1275 17.1541 19.1968 17.085 19.2635C16.6581 19.675 16.3379 19.9836 17.1027 20.4876C17.4702 20.7298 17.7643 20.9301 18.0577 21.1299C18.3781 21.3481 18.6977 21.5657 19.1112 21.8368C19.2165 21.9058 19.3172 21.9775 19.4151 22.0474C19.788 22.3132 20.123 22.5521 20.5369 22.514C20.7774 22.4919 21.0258 22.2657 21.152 21.5913C21.4501 19.9974 22.0362 16.5439 22.1716 15.1207C22.1835 14.9961 22.1686 14.8365 22.1566 14.7664C22.1446 14.6964 22.1196 14.5966 22.0285 14.5227C21.9207 14.4352 21.7542 14.4168 21.6798 14.4181C21.3412 14.424 20.8219 14.6046 18.3225 15.6442Z" fill="white" fill-opacity="0.5"/>
<rect id="Rectangle 2905" x="0.5" y="0.5" width="35" height="35" rx="4.5" stroke="white" stroke-opacity="0.7"/>
</g>
</svg>
