<svg width="36" height="36" viewBox="0 0 36 36" fill="none" xmlns="http://www.w3.org/2000/svg">
<g id="Group 427320727">
<path id="vector" d="M18.0377 9C13.0976 9 9.07723 13.0014 9.07548 17.919C9.07432 19.4916 9.48774 21.0264 10.2716 22.3782L9 27L13.7514 25.7598C15.0731 26.4742 16.5427 26.8469 18.0343 26.8458H18.0377C22.9779 26.8458 26.9983 22.8438 27 17.9262C27.0012 15.5442 26.0698 13.302 24.3772 11.6166C22.6852 9.9306 20.4352 9.0006 18.0377 9ZM18.0377 25.3392H18.0348C16.6982 25.3392 15.3871 24.9816 14.2432 24.306L13.9703 24.1452L11.1519 24.8808L11.9044 22.1448L11.7273 21.8646C10.9834 20.6923 10.5874 19.3208 10.5881 17.919C10.5898 13.8312 13.932 10.5066 18.0406 10.5066C20.0299 10.5072 21.9002 11.2794 23.3071 12.6804C24.714 14.0814 25.488 15.9444 25.4868 17.9256C25.4851 22.0134 22.1435 25.3392 18.0372 25.3392H18.0377ZM22.1237 19.7862C21.8996 19.6752 20.7987 19.1358 20.5932 19.0608C20.3882 18.987 20.239 18.9486 20.0897 19.1718C19.9411 19.395 19.5114 19.8972 19.3814 20.0454C19.2501 20.1942 19.1195 20.2122 18.8954 20.1012C18.6712 19.9896 17.9495 19.7544 17.0948 18.9948C16.4288 18.4044 15.9794 17.6748 15.8487 17.451C15.7181 17.2284 15.8348 17.1078 15.9468 16.9968C16.0473 16.8978 16.171 16.737 16.2825 16.6068C16.3939 16.4766 16.4311 16.3836 16.5066 16.2348C16.5809 16.0866 16.5437 15.9558 16.4874 15.8448C16.4311 15.7326 15.984 14.6358 15.7965 14.19C15.6153 13.7556 15.4306 13.8138 15.293 13.8066C15.1624 13.8006 15.0137 13.7988 14.8634 13.7988C14.7153 13.7988 14.472 13.8546 14.2665 14.0778C14.0615 14.301 13.4826 14.8398 13.4826 15.9366C13.4826 17.034 14.285 18.0936 14.3971 18.2424C14.5092 18.3906 15.9765 20.6424 18.223 21.6084C18.7572 21.837 19.1741 21.9744 19.4998 22.0776C20.0363 22.2474 20.5246 22.2228 20.9102 22.1658C21.3399 22.1016 22.2352 21.627 22.421 21.1068C22.608 20.5866 22.608 20.1402 22.5523 20.0472C22.4977 19.9542 22.3479 19.8984 22.1237 19.7862Z" fill="white" fill-opacity="0.5"/>
<rect id="Rectangle 2904" x="0.5" y="0.5" width="35" height="35" rx="4.5" stroke="white" stroke-opacity="0.7"/>
</g>
</svg>
