<svg width="40" height="40" viewBox="0 0 40 40" fill="none" xmlns="http://www.w3.org/2000/svg">
<path d="M20.0503 9.6001C13.4635 9.6001 8.10297 14.7632 8.10065 21.1085C8.0991 23.1376 8.65032 25.118 9.69548 26.8623L8 32.8259L14.3352 31.2256C16.0975 32.1475 18.0569 32.6283 20.0457 32.6269H20.0503C26.6372 32.6269 31.9977 27.4631 32 21.1178C32.0015 18.0442 30.7597 15.1511 28.503 12.9764C26.247 10.8009 23.247 9.60087 20.0503 9.6001ZM20.0503 30.6829H20.0465C18.2643 30.6829 16.5161 30.2215 14.991 29.3498L14.6271 29.1423L10.8692 30.0915L11.8725 26.5611L11.6364 26.1996C10.6446 24.6869 10.1166 22.9173 10.1174 21.1085C10.1197 15.8339 14.576 11.5441 20.0542 11.5441C22.7066 11.5449 25.2003 12.5413 27.0761 14.349C28.952 16.1567 29.984 18.5606 29.9825 21.117C29.9801 26.3916 25.5246 30.6829 20.0495 30.6829H20.0503ZM25.4983 23.5178C25.1995 23.3745 23.7316 22.6785 23.4575 22.5818C23.1843 22.4865 22.9853 22.437 22.7863 22.725C22.5881 23.013 22.0152 23.661 21.8418 23.8522C21.6668 24.0442 21.4926 24.0675 21.1938 23.9242C20.895 23.7802 19.9326 23.4767 18.793 22.4966C17.905 21.7348 17.3058 20.7934 17.1316 20.5046C16.9574 20.2174 17.113 20.0618 17.2625 19.9185C17.3964 19.7908 17.5613 19.5833 17.7099 19.4153C17.8586 19.2473 17.9081 19.1273 18.0088 18.9353C18.1079 18.7441 18.0583 18.5753 17.9832 18.4321C17.9081 18.2873 17.312 16.8721 17.0619 16.2969C16.8204 15.7364 16.5742 15.8115 16.3907 15.8022C16.2165 15.7944 16.0183 15.7921 15.8178 15.7921C15.6204 15.7921 15.296 15.8641 15.0219 16.1521C14.7486 16.4401 13.9768 17.1353 13.9768 18.5505C13.9768 19.9665 15.0467 21.3338 15.1961 21.5258C15.3455 21.717 17.3019 24.6226 20.2973 25.869C21.0095 26.164 21.5654 26.3413 21.9997 26.4744C22.7151 26.6935 23.3662 26.6618 23.8803 26.5882C24.4532 26.5054 25.647 25.893 25.8947 25.2218C26.144 24.5505 26.144 23.9746 26.0697 23.8546C25.9969 23.7346 25.7972 23.6625 25.4983 23.5178Z" fill="white" fill-opacity="0.5"/>
<rect x="0.5" y="0.5" width="39" height="39" rx="4.5" stroke="white" stroke-opacity="0.7"/>
</svg>
