<svg width="36" height="36" viewBox="0 0 36 36" fill="none" xmlns="http://www.w3.org/2000/svg">
<g id="Group 427320727">
<path id="vector" d="M18.5528 9.25732C13.4715 9.25732 9.33627 13.2403 9.33448 18.1352C9.33328 19.7006 9.75851 21.2283 10.5648 22.5739L9.25684 27.1744L14.144 25.9399C15.5034 26.651 17.015 27.0219 18.5492 27.0209H18.5528C23.6341 27.0209 27.7693 23.0373 27.7711 18.1424C27.7723 15.7714 26.8144 13.5395 25.0734 11.8619C23.3331 10.1836 21.0188 9.25792 18.5528 9.25732ZM18.5528 25.5212H18.5498C17.175 25.5212 15.8264 25.1653 14.6499 24.4928L14.3692 24.3327L11.4702 25.0649L12.2442 22.3415L12.062 22.0626C11.2969 20.8957 10.8896 19.5306 10.8903 18.1352C10.8921 14.0663 14.3297 10.757 18.5558 10.757C20.6019 10.7576 22.5256 11.5262 23.9727 12.9208C25.4198 14.3153 26.2159 16.1697 26.2147 18.1418C26.2129 22.2108 22.7758 25.5212 18.5522 25.5212H18.5528ZM22.7555 19.9938C22.525 19.8833 21.3927 19.3464 21.1812 19.2718C20.9704 19.1983 20.8169 19.1601 20.6634 19.3822C20.5105 19.6044 20.0686 20.1043 19.9348 20.2518C19.7998 20.3999 19.6654 20.4179 19.4349 20.3074C19.2044 20.1963 18.462 19.9622 17.5829 19.2061C16.8979 18.6184 16.4356 17.8921 16.3012 17.6694C16.1668 17.4478 16.2869 17.3278 16.4022 17.2173C16.5055 17.1187 16.6327 16.9587 16.7474 16.8291C16.862 16.6995 16.9003 16.6069 16.9779 16.4588C17.0543 16.3113 17.0161 16.1811 16.9582 16.0706C16.9003 15.9589 16.4404 14.8672 16.2475 14.4234C16.0611 13.991 15.8712 14.0489 15.7297 14.0418C15.5953 14.0358 15.4424 14.034 15.2877 14.034C15.1354 14.034 14.8852 14.0896 14.6738 14.3117C14.4629 14.5339 13.8675 15.0702 13.8675 16.162C13.8675 17.2543 14.6929 18.309 14.8081 18.4571C14.9234 18.6046 16.4326 20.8461 18.7433 21.8076C19.2928 22.0352 19.7216 22.1719 20.0566 22.2747C20.6085 22.4437 21.1108 22.4192 21.5073 22.3625C21.9493 22.2985 22.8702 21.8261 23.0613 21.3083C23.2536 20.7905 23.2536 20.3462 23.1963 20.2536C23.1402 20.161 22.9861 20.1055 22.7555 19.9938V19.9938Z" fill="white" fill-opacity="0.5"/>
<rect id="Rectangle 2904" x="0.5" y="0.5" width="35" height="35" rx="4.5" stroke="white" stroke-opacity="0.7"/>
</g>
</svg>
